<svg width="48" height="19" viewBox="0 0 48 19" fill="none" xmlns="http://www.w3.org/2000/svg">
<g id="Logo" clip-path="url(#clip0_1302_1289)">
<path id="Vector" d="M11.3937 0C9.51914 0 7.72142 0.766365 6.39594 2.13051L2.07013 6.58249C0.744646 7.94662 0 9.79678 0 11.726C0 15.7433 3.16439 19 7.06788 19C8.9424 19 10.7401 18.2336 12.0656 16.8695L15.0578 13.79C15.0578 13.7901 15.0578 13.7899 15.0578 13.79L23.776 4.81751C24.4091 4.16601 25.2676 3.8 26.1629 3.8C27.6617 3.8 28.9324 4.80536 29.373 6.19658L32.1244 3.36487C30.8692 1.34162 28.6683 0 26.1629 0C24.2884 0 22.4906 0.766365 21.1652 2.13051L9.45477 14.1825C8.82172 14.834 7.96314 15.2 7.06788 15.2C5.20359 15.2 3.69231 13.6447 3.69231 11.726C3.69231 10.8046 4.04795 9.92098 4.68099 9.26947L9.00677 4.81751C9.63982 4.16601 10.4984 3.8 11.3937 3.8C12.8926 3.8 14.1632 4.8054 14.6038 6.19667L17.3553 3.36494C16.1001 1.34165 13.8991 0 11.3937 0Z" fill="#394149"/>
<path id="Vector_2" d="M24.224 14.1825C23.591 14.834 22.7324 15.2 21.8371 15.2C20.3385 15.2 19.0679 14.1949 18.6272 12.8039L15.8759 15.6355C17.1311 17.6585 19.3319 19 21.8371 19C23.7117 19 25.5094 18.2336 26.8349 16.8695L38.5453 4.81751C39.1783 4.16601 40.0369 3.8 40.9322 3.8C42.7965 3.8 44.3077 5.35537 44.3077 7.27402C44.3077 8.1954 43.9521 9.07902 43.3191 9.73053L38.9933 14.1825C38.3602 14.834 37.5016 15.2 36.6064 15.2C35.1076 15.2 33.837 14.1947 33.3963 12.8036L30.645 15.6353C31.9002 17.6585 34.101 19 36.6064 19C38.4809 19 40.2786 18.2336 41.6041 16.8695L45.9299 12.4175C47.2554 11.0534 48 9.20322 48 7.27402C48 3.25669 44.8357 0 40.9322 0C39.0576 0 37.2599 0.766365 35.9344 2.13051L24.224 14.1825Z" fill="#394149"/>
</g>
<defs>
<clipPath id="clip0_1302_1289">
<rect width="48" height="19" fill="white"/>
</clipPath>
</defs>
</svg>
