<svg width="48" height="26" viewBox="0 0 48 26" fill="none" xmlns="http://www.w3.org/2000/svg">
<g id="Logo" clip-path="url(#clip0_1302_1293)">
<path id="Vector" d="M47.9963 9.24703C48.0013 9.21089 48.0013 9.17436 47.9963 9.13822C48.001 9.10878 48.001 9.07875 47.9963 9.04924L47.6407 6.50761C47.5894 6.20353 47.4522 5.91932 47.2445 5.68677L47.1835 5.61754L47.0719 5.50875L40.916 0.346385L41.0887 0.514521C40.9474 0.349955 40.7701 0.218325 40.5697 0.129326C40.3693 0.0403263 40.1509 -0.00378085 39.9307 0.000258322H38.0615C37.7576 -0.00560438 37.4606 0.0884741 37.2184 0.267281C36.9641 0.0895512 36.6579 -0.00404611 36.3448 0.000258322H34.4757C34.2305 -0.00361377 33.9887 0.0556171 33.7747 0.171971C33.5606 0.288325 33.3819 0.457671 33.2567 0.662857C33.0637 0.955923 32.9911 1.30902 33.0535 1.65182L33.2872 3.25393C33.1324 3.1685 32.9572 3.12418 32.7793 3.12538H23.7283C23.4036 3.12736 23.0863 3.22002 22.8141 3.39238C22.5508 3.55282 22.3395 3.78254 22.2046 4.05498L21.5037 3.4715C21.2278 3.223 20.8637 3.08831 20.4879 3.0957H6.28672C5.96083 3.10148 5.64219 3.19012 5.36235 3.35283C4.97951 3.57098 4.69895 3.92569 4.58015 4.34179L0.06992 19.0278C-0.0143522 19.2698 -0.0226422 19.5308 0.0461116 19.7774C0.114865 20.024 0.257549 20.2451 0.455935 20.4124C0.507629 20.455 0.561907 20.4947 0.61847 20.531C0.61847 20.531 0.527032 20.4717 0.476241 20.4223L6.63213 25.5945C6.89253 25.8279 7.233 25.9584 7.58693 25.9604H21.8999C22.2267 25.9522 22.5456 25.8601 22.8243 25.6934C22.9819 25.6095 23.1229 25.499 23.2407 25.367L23.2915 25.2978L23.3728 25.1989L23.4337 25.0901L24.1042 25.6539C24.3609 25.878 24.6939 26.0013 25.0387 26H39.3821C39.7086 25.9894 40.0269 25.8975 40.3065 25.733C40.4605 25.644 40.6007 25.5341 40.723 25.4066L40.7737 25.3374L40.855 25.2385C40.8982 25.1759 40.9357 25.1098 40.9667 25.0407C40.9999 24.9807 41.0271 24.9178 41.048 24.8528L45.1621 11.4425V11.3238C45.1671 11.2778 45.1671 11.2314 45.1621 11.1854V11.0964C45.167 11.0669 45.167 11.0369 45.1621 11.0074C45.1667 10.9448 45.1667 10.882 45.1621 10.8194H46.4827C46.5975 10.8297 46.7131 10.8297 46.828 10.8194H46.9195C46.9938 10.7979 47.0654 10.768 47.1328 10.7305H47.2344L47.4172 10.592L47.4985 10.5327L47.6407 10.3546V10.2954L47.7423 10.1272C47.7366 10.0945 47.7366 10.061 47.7423 10.0283C47.7369 10.0123 47.7369 9.99492 47.7423 9.97887C47.7639 9.92089 47.7809 9.86135 47.7931 9.80083C47.7883 9.78133 47.7883 9.76099 47.7931 9.74149C47.7881 9.71204 47.7881 9.68195 47.7931 9.6525C47.7931 9.6525 47.9963 9.26679 47.9963 9.24703Z" fill="black"/>
<path id="Vector_2" d="M20.9043 4.22315C20.9582 4.27062 20.9959 4.33305 21.0122 4.40201C21.0286 4.47098 21.0228 4.54316 20.9958 4.60884L16.4957 19.285C16.439 19.4452 16.3231 19.5792 16.1706 19.6608C16.0466 19.7416 15.903 19.7893 15.7541 19.7993H1.45141C1.32926 19.7936 1.21354 19.7443 1.12634 19.6608C1.07447 19.6141 1.03806 19.5534 1.02177 19.4865C1.00549 19.4195 1.01007 19.3494 1.03492 19.285L5.54515 4.60884C5.59712 4.44658 5.70941 4.30904 5.86005 4.22315C5.98617 4.14815 6.12908 4.10403 6.27654 4.09458H20.5792C20.7004 4.09571 20.8166 4.14168 20.9043 4.22315ZM13.438 16.328L16.13 7.56582H8.59263L5.91083 16.328H13.438ZM34.5569 4.37148C34.6057 4.42669 34.6667 4.47048 34.7353 4.49958C34.8039 4.52869 34.8783 4.54237 34.9531 4.5396H36.812C36.8828 4.54028 36.9526 4.52338 37.0148 4.4905C37.077 4.45763 37.1296 4.40985 37.1676 4.3517C37.2006 4.30628 37.2239 4.25486 37.2361 4.20049C37.2483 4.14613 37.2492 4.08994 37.2386 4.03524L36.873 1.42439C36.8382 1.30355 36.7756 1.19197 36.6902 1.09803C36.6413 1.04282 36.5804 0.999035 36.5118 0.969928C36.4432 0.940821 36.3687 0.927145 36.294 0.929908H34.435C34.3642 0.929238 34.2944 0.946138 34.2322 0.979015C34.17 1.01189 34.1174 1.05966 34.0795 1.11782C34.0084 1.25627 33.9779 1.34527 34.0084 1.42439L34.3842 4.03524C34.4035 4.16237 34.464 4.28017 34.5569 4.37148ZM40.4588 1.40461C40.424 1.28377 40.3614 1.17219 40.276 1.07825C40.2292 1.02324 40.17 0.97947 40.1031 0.950311C40.0362 0.921159 39.9632 0.907405 39.89 0.910128H38.0208C37.9512 0.908198 37.8824 0.924643 37.8216 0.957721C37.7608 0.9908 37.7103 1.03929 37.6755 1.09803C37.6079 1.18577 37.5786 1.29597 37.5942 1.40461L37.97 4.01546C37.9936 4.14125 38.0535 4.25788 38.1428 4.3517C38.1924 4.40583 38.2536 4.44888 38.322 4.4779C38.3904 4.50692 38.4643 4.52122 38.5389 4.51982H40.408C40.4775 4.52072 40.5459 4.50384 40.6065 4.47085C40.6672 4.43787 40.7178 4.38997 40.7534 4.33193C40.7888 4.28768 40.8134 4.23628 40.8258 4.18153C40.8381 4.12677 40.8376 4.07003 40.8245 4.01546L40.4588 1.40461ZM32.9214 5.36044L32.7386 4.0748H23.7283C23.5868 4.08239 23.45 4.12679 23.3321 4.20336C23.2573 4.24308 23.1922 4.29814 23.1413 4.36472C23.0905 4.43131 23.0551 4.50785 23.0376 4.58906L22.2858 7.04166C22.2558 7.10295 22.2456 7.17172 22.2564 7.2388C22.2674 7.30588 22.2988 7.36815 22.3468 7.41749C22.4324 7.49588 22.5442 7.54157 22.6617 7.54606H33.6122L30.9203 16.3083H20.0002C19.8594 16.3114 19.7223 16.3525 19.6041 16.4269C19.4604 16.5157 19.3555 16.6531 19.3095 16.8126L18.5476 19.2652C18.5228 19.3282 18.5162 19.3965 18.5288 19.4628C18.5414 19.5292 18.5724 19.5908 18.6187 19.641C18.7017 19.7247 18.8144 19.7742 18.9336 19.7794H33.277C33.4253 19.767 33.5683 19.7195 33.6934 19.641C33.8434 19.559 33.956 19.4247 34.0084 19.2652L38.1326 5.85492H33.4903C33.4166 5.85634 33.3435 5.84302 33.2754 5.81581C33.2072 5.78859 33.1456 5.74804 33.0942 5.69668C33.0102 5.607 32.9508 5.49817 32.9214 5.38022V5.36044Z" fill="white"/>
</g>
<defs>
<clipPath id="clip0_1302_1293">
<rect width="48" height="26" fill="white"/>
</clipPath>
</defs>
</svg>
